<?xml version="1.0" encoding="utf-8" standalone="no"?><!-- Created by SVGDeveloper 1.0 -->
<svg xmlns:xlink="http://www.w3.org/1999/xlink"
    height="96px"
    version="1.1"
    width="96px"
    xmlns="http://www.w3.org/2000/svg">
    <path d="M432.055,10.821c0.458-0.477,0-1.271-0.455-1.908 c-0.458-0.636-6.396,0.317-7.994-0.318c-1.599-0.636-3.643-3.906-8.221-4.135c-7.993-0.396-9.675,2.625-10.905,5.089 c-1.787,3.577-5.08,7.79-8.049,10.493c-2.671,2.429-7.742,4.781-21.012,4.451c-6.395-0.158-23.979-0.635-28.546,1.75 c-4.567,2.385-8.68,6.995-7.765,11.605c0.3,1.51-0.517,9.336-2.842,10.6c-3.186,1.73-5.092,3.929,0.757,1.697 c3.772-1.439,5.728-3.753,6.644-5.218c0.227,0.433,0.328,0.871,0.237,1.347c-0.458,2.386-7.994,5.725-7.765,6.838 c0.228,1.113-0.457,7.949,0.456,9.222c0.913,1.271,6.623,1.431,7.993,0.478c1.371-0.955-0.913-1.591-2.283-2.545 c-1.37-0.953,0-2.067,0.457-3.656c0.456-1.59,5.023-4.611,8.905-6.36c3.883-1.749,7.765-6.678,9.364-7.154 c1.598-0.478,7.079,0.636,14.615,0.636c7.537,0,19.868-0.159,21.696,0.637c1.826,0.795,4.566,5.882,6.165,8.426 c1.599,2.543,2.512,8.586,3.883,8.904c1.37,0.318,6.622-0.478,6.622-2.066c0-1.591-3.882-1.113-4.339-2.545 c-0.456-1.431-1.142-13.832,0-15.899c4.111-2.385,3.884-11.288,5.024-12.878s5.48-9.698,6.165-10.812 c0.686-1.113,5.253-0.159,8.907-1.113S431.6,11.298,432.055,10.821z"
        fill="#FFFFFF"
        stroke="#000000"
        transform="matrix(0.826,0,0,1.502,-268.326,-5.839)"
        xmlns="http://www.w3.org/2000/svg" />
</svg>
